<svg width="43" height="41" viewBox="0 0 43 41" fill="none" xmlns="http://www.w3.org/2000/svg">
<path fill-rule="evenodd" clip-rule="evenodd" d="M36.6848 39.978H5.55556C3.03975 39.978 1 37.9298 1 35.4036V12.1506C1 9.62438 3.03975 7.57617 5.55556 7.57617H36.6848C39.2006 7.57617 41.2404 9.62438 41.2404 12.1506V35.4036C41.2404 37.9298 39.2006 39.978 36.6848 39.978V39.978Z" stroke="white" stroke-width="2"/>
<path d="M1.75879 20.4414H40.481" stroke="white" stroke-width="2"/>
<path d="M16.5643 20.4414V39.8828H12.0088V20.4414" stroke="white" stroke-width="2"/>
<path d="M25.6758 39.8828V20.4414" stroke="white" stroke-width="2"/>
<path d="M30.231 20.4414V39.8828" stroke="white" stroke-width="2"/>
<path d="M15.4255 6.71805C15.4255 6.71805 15.1408 1 21.1199 1C26.7199 1 26.8144 6.71805 26.8144 6.71805" stroke="white" stroke-width="2"/>
</svg>
