<svg width="24" height="26" viewBox="0 0 24 26" fill="none" xmlns="http://www.w3.org/2000/svg">
<mask id="mask0_0_885" style="mask-type:alpha" maskUnits="userSpaceOnUse" x="0" y="0" width="24" height="25">
<path fill-rule="evenodd" clip-rule="evenodd" d="M0 24.0602H23.9905V0.00537109H0V24.0602V24.0602Z" fill="white"/>
</mask>
<g mask="url(#mask0_0_885)">
<path fill-rule="evenodd" clip-rule="evenodd" d="M22.6664 0.00537109H1.32404C0.592719 0.00537109 0 0.599679 0 1.33297V22.7326C0 23.4658 0.592719 24.0603 1.32404 24.0603H12.8141V14.7449H9.68764V11.1145H12.8141V8.43726C12.8141 5.33035 14.7066 3.63855 17.4708 3.63855C18.795 3.63855 19.9329 3.73733 20.2645 3.78149V7.02846L18.3474 7.02937C16.8441 7.02937 16.553 7.74562 16.553 8.7967V11.1145H20.1383L19.6716 14.7449H16.553V24.0603H22.6664C23.3977 24.0603 23.9905 23.4658 23.9905 22.7326V1.33297C23.9905 0.599679 23.3977 0.00537109 22.6664 0.00537109" fill="#4B4B4B"/>
</g>
</svg>
