<svg width="24" height="26" viewBox="0 0 24 26" fill="none" xmlns="http://www.w3.org/2000/svg">
<mask id="mask0_0_888" style="mask-type:alpha" maskUnits="userSpaceOnUse" x="0" y="0" width="24" height="25">
<path fill-rule="evenodd" clip-rule="evenodd" d="M0 24.0647H24V0.00537109H0V24.0647Z" fill="white"/>
</mask>
<g mask="url(#mask0_0_888)">
<path fill-rule="evenodd" clip-rule="evenodd" d="M21.3332 6.68992C21.3332 7.05908 21.0347 7.35838 20.6665 7.35838H17.3332C16.965 7.35838 16.6665 7.05908 16.6665 6.68992V3.34765C16.6665 2.9785 16.965 2.6792 17.3332 2.6792H20.6665C21.0347 2.6792 21.3332 2.9785 21.3332 3.34765V6.68992ZM21.3332 20.7275C21.3332 21.0966 21.0347 21.3959 20.6665 21.3959H3.33317C2.965 21.3959 2.6665 21.0966 2.6665 20.7275V10.0322H4.94267C4.76284 10.6697 4.6665 11.3424 4.6665 12.0376C4.6665 16.0985 7.94975 19.3906 11.9998 19.3906C16.0499 19.3906 19.3332 16.0985 19.3332 12.0376C19.3332 11.3424 19.2368 10.6697 19.057 10.0322H21.3332V20.7275ZM12.0002 7.3584C14.5775 7.3584 16.6668 9.45333 16.6668 12.0376C16.6668 14.6218 14.5775 16.7168 12.0002 16.7168C9.42283 16.7168 7.3335 14.6218 7.3335 12.0376C7.3335 9.45333 9.42283 7.3584 12.0002 7.3584ZM20.6667 0.00537109H3.33333C1.49242 0.00537109 0 1.50179 0 3.34764V20.7274C0 22.5733 1.49242 24.0697 3.33333 24.0697H20.6667C22.5076 24.0697 24 22.5733 24 20.7274V3.34764C24 1.50179 22.5076 0.00537109 20.6667 0.00537109Z" fill="#4B4B4B"/>
</g>
</svg>
