<svg width="24" height="26" viewBox="0 0 24 26" fill="none" xmlns="http://www.w3.org/2000/svg">
<mask id="mask0_0_888" style="mask-type:alpha" maskUnits="userSpaceOnUse" x="0" y="0" width="24" height="25">
<path fill-rule="evenodd" clip-rule="evenodd" d="M0 24.0647H24V0.00537109H0V24.0647V24.0647Z" fill="white"/>
</mask>
<g mask="url(#mask0_0_888)">
<path fill-rule="evenodd" clip-rule="evenodd" d="M21.3333 6.68991C21.3333 7.05906 21.0348 7.35836 20.6667 7.35836H17.3333C16.9652 7.35836 16.6667 7.05906 16.6667 6.68991V3.34764C16.6667 2.97849 16.9652 2.67919 17.3333 2.67919H20.6667C21.0348 2.67919 21.3333 2.97849 21.3333 3.34764V6.68991ZM21.3333 20.7274C21.3333 21.0966 21.0348 21.3959 20.6667 21.3959H3.33333C2.96517 21.3959 2.66667 21.0966 2.66667 20.7274V10.0322H4.94283C4.763 10.6696 4.66667 11.3424 4.66667 12.0375C4.66667 16.0985 7.94992 19.3905 12 19.3905C16.0501 19.3905 19.3333 16.0985 19.3333 12.0375C19.3333 11.3424 19.237 10.6696 19.0572 10.0322H21.3333V20.7274ZM12 7.35837C14.5773 7.35837 16.6667 9.4533 16.6667 12.0375C16.6667 14.6218 14.5773 16.7167 12 16.7167C9.42267 16.7167 7.33333 14.6218 7.33333 12.0375C7.33333 9.4533 9.42267 7.35837 12 7.35837ZM20.6667 0.00537109H3.33333C1.49242 0.00537109 0 1.50179 0 3.34764V20.7274C0 22.5733 1.49242 24.0697 3.33333 24.0697H20.6667C22.5076 24.0697 24 22.5733 24 20.7274V3.34764C24 1.50179 22.5076 0.00537109 20.6667 0.00537109Z" fill="#4B4B4B"/>
</g>
</svg>
