<svg width="25" height="26" viewBox="0 0 25 26" fill="none" xmlns="http://www.w3.org/2000/svg">
<mask id="mask0_0_898" style="mask-type:alpha" maskUnits="userSpaceOnUse" x="0" y="0" width="25" height="25">
<path fill-rule="evenodd" clip-rule="evenodd" d="M0.0458984 24.0269H24.7384V0.00268555H0.0458984V24.0269Z" fill="white"/>
</mask>
<g mask="url(#mask0_0_898)">
<path fill-rule="evenodd" clip-rule="evenodd" d="M21.0882 20.5081H17.4267V14.9231C17.4267 13.5916 17.4027 11.8783 15.5233 11.8783C13.6178 11.8783 13.327 13.3295 13.327 14.8282V20.5081H9.66895V9.02402H13.1795V10.5942H13.2296C13.7179 9.69114 14.9135 8.73926 16.6955 8.73926C20.403 8.73926 21.0882 11.1169 21.0882 14.2099V20.5081ZM5.53885 7.45517C4.3625 7.45517 3.41455 6.52802 3.41455 5.38496C3.41455 4.24258 4.3625 3.31543 5.53885 3.31543C6.71041 3.31543 7.66178 4.24258 7.66178 5.38496C7.66178 6.52802 6.71041 7.45517 5.53885 7.45517ZM3.70508 20.5082H7.37065V9.02417H3.70508V20.5082ZM22.9118 0.00268555H1.86771C0.862832 0.00268555 0.0458984 0.779429 0.0458984 1.73799V22.3304C0.0458984 23.2889 0.862832 24.067 1.86771 24.067H22.9118C23.9194 24.067 24.7384 23.2889 24.7384 22.3304V1.73799C24.7384 0.779429 23.9194 0.00268555 22.9118 0.00268555Z" fill="#4B4B4B"/>
</g>
</svg>
