<svg width="25" height="26" viewBox="0 0 25 26" fill="none" xmlns="http://www.w3.org/2000/svg">
<mask id="mask0_0_898" style="mask-type:alpha" maskUnits="userSpaceOnUse" x="0" y="0" width="25" height="25">
<path fill-rule="evenodd" clip-rule="evenodd" d="M0.0458984 24.0269H24.7384V0.00268555H0.0458984V24.0269V24.0269Z" fill="white"/>
</mask>
<g mask="url(#mask0_0_898)">
<path fill-rule="evenodd" clip-rule="evenodd" d="M21.088 20.5082H17.4265V14.9232C17.4265 13.5917 17.4025 11.8784 15.5231 11.8784C13.6176 11.8784 13.3267 13.3297 13.3267 14.8283V20.5082H9.66871V9.02414H13.1793V10.5943H13.2293C13.7177 9.69126 14.9133 8.73938 16.6953 8.73938C20.4027 8.73938 21.088 11.1171 21.088 14.21V20.5082ZM5.53877 7.45528C4.36241 7.45528 3.41447 6.52813 3.41447 5.38508C3.41447 4.24269 4.36241 3.31554 5.53877 3.31554C6.71032 3.31554 7.6617 4.24269 7.6617 5.38508C7.6617 6.52813 6.71032 7.45528 5.53877 7.45528ZM3.7053 20.5082H7.37087V9.02414H3.7053V20.5082ZM22.9118 0.00268555H1.86771C0.862832 0.00268555 0.0458984 0.779429 0.0458984 1.73799V22.3304C0.0458984 23.2889 0.862832 24.067 1.86771 24.067H22.9118C23.9194 24.067 24.7384 23.2889 24.7384 22.3304V1.73799C24.7384 0.779429 23.9194 0.00268555 22.9118 0.00268555Z" fill="#4B4B4B"/>
</g>
</svg>
