<svg width="11" height="17" viewBox="0 0 11 17" fill="none" xmlns="http://www.w3.org/2000/svg">
<path fill-rule="evenodd" clip-rule="evenodd" d="M4.7664 16.3727C4.89755 16.5907 5.12879 16.7234 5.37774 16.7235C5.62673 16.7235 5.85801 16.5909 5.98915 16.3729C7.39825 14.0841 10.7554 8.33863 10.7554 5.54067C10.7554 2.48067 8.3477 0 5.37771 0C2.40767 0 0 2.48067 0 5.54067C0 8.33863 3.35712 14.0841 4.7664 16.3727V16.3727Z" fill="#4B4B4B"/>
<path fill-rule="evenodd" clip-rule="evenodd" d="M5.31647 7.17777C6.43025 7.17777 7.33314 6.24752 7.33314 5.09999C7.33314 3.95247 6.43025 3.02222 5.31647 3.02222C4.2027 3.02222 3.2998 3.95247 3.2998 5.09999C3.2998 6.24752 4.2027 7.17777 5.31647 7.17777Z" fill="white"/>
</svg>
