<svg width="61" height="66" viewBox="0 0 61 66" fill="none" xmlns="http://www.w3.org/2000/svg">
<path fill-rule="evenodd" clip-rule="evenodd" d="M56.4652 1.9969L1.99707 56.465V1.9969H56.4652Z" stroke="#EBCB80" stroke-width="2" stroke-linecap="round" stroke-linejoin="round"/>
<path fill-rule="evenodd" clip-rule="evenodd" d="M34.6779 11.5288L12.8906 33.316V11.5288H34.6779Z" stroke="#EBCB80" stroke-width="2" stroke-linecap="round" stroke-linejoin="round"/>
<path d="M3.3584 8.80541H7.4435" stroke="#EBCB80" stroke-width="2" stroke-linecap="round" stroke-linejoin="round"/>
<path d="M3.3584 22.4224H7.4435" stroke="#EBCB80" stroke-width="2" stroke-linecap="round" stroke-linejoin="round"/>
<path d="M3.3584 15.6139H7.4435" stroke="#EBCB80" stroke-width="2" stroke-linecap="round" stroke-linejoin="round"/>
<path d="M3.3584 36.0395H7.4435" stroke="#EBCB80" stroke-width="2" stroke-linecap="round" stroke-linejoin="round"/>
<path d="M3.3584 29.2309H7.4435" stroke="#EBCB80" stroke-width="2" stroke-linecap="round" stroke-linejoin="round"/>
<path d="M22.8335 51.6787L47.8873 24.3945" stroke="#EBCB80" stroke-width="2" stroke-linecap="round" stroke-linejoin="round"/>
<path d="M49.8823 64.5555L55.2645 27.9064" stroke="#EBCB80" stroke-width="2" stroke-linecap="round" stroke-linejoin="round"/>
<path fill-rule="evenodd" clip-rule="evenodd" d="M55.6729 17.544C58.3872 18.8361 59.5418 22.089 58.2497 24.8032C56.9576 27.5175 53.7047 28.6721 50.9904 27.38C48.2762 26.0877 47.1216 22.835 48.4137 20.1207C49.7059 17.4065 52.9586 16.2519 55.6729 17.544V17.544Z" stroke="#EBCB80" stroke-width="2" stroke-linecap="round" stroke-linejoin="round"/>
<path fill-rule="evenodd" clip-rule="evenodd" d="M53.9169 21.2324C54.5954 21.5554 54.8841 22.3686 54.5611 23.0473C54.238 23.7259 53.4249 24.0145 52.7462 23.6914C52.0677 23.3684 51.779 22.5552 52.1021 21.8767C52.4251 21.1981 53.2383 20.9094 53.9169 21.2324V21.2324Z" stroke="#EBCB80" stroke-width="2" stroke-linecap="round" stroke-linejoin="round"/>
<path d="M59.1849 10.1671L56.2583 16.3145" stroke="#EBCB80" stroke-width="2" stroke-linecap="round" stroke-linejoin="round"/>
<path d="M34.5986 30.1332C40.9465 38.2308 48.1206 42.102 59.1885 41.8395" stroke="#EBCB80" stroke-width="2" stroke-linecap="round" stroke-linejoin="round"/>
</svg>
