<svg width="25" height="25" viewBox="0 0 25 25" fill="none" xmlns="http://www.w3.org/2000/svg">
<path fill-rule="evenodd" clip-rule="evenodd" d="M12.2977 0.315186C5.67034 0.315186 0.297363 5.70183 0.297363 12.347C0.297363 17.4445 3.46023 21.7983 7.9246 23.5511C7.81939 22.5995 7.72448 21.1388 7.9658 20.1002C8.18431 19.1611 9.37323 14.1189 9.37323 14.1189C9.37323 14.1189 9.0142 13.3982 9.0142 12.333C9.0142 10.6599 9.98094 9.41096 11.1853 9.41096C12.2094 9.41096 12.7038 10.1811 12.7038 11.1054C12.7038 12.1382 12.0483 13.6815 11.7099 15.1119C11.4274 16.3091 12.3088 17.2859 13.4867 17.2859C15.6195 17.2859 17.2594 15.0307 17.2594 11.776C17.2594 8.89531 15.195 6.88067 12.247 6.88067C8.83248 6.88067 6.82837 9.44858 6.82837 12.1028C6.82837 13.1363 7.22566 14.2458 7.72154 14.8485C7.81939 14.9673 7.8341 15.072 7.80467 15.1938C7.71345 15.5737 7.51112 16.391 7.47139 16.5578C7.41916 16.7783 7.29703 16.8248 7.06969 16.7193C5.57102 16.0192 4.63445 13.8224 4.63445 12.0578C4.63445 8.26237 7.38458 4.77676 12.5633 4.77676C16.7253 4.77676 19.961 7.75115 19.961 11.7258C19.961 15.8724 17.3529 19.2098 13.7339 19.2098C12.5177 19.2098 11.3751 18.5761 10.9837 17.8281C10.9837 17.8281 10.3819 20.1252 10.2362 20.6881C9.96476 21.7334 9.23345 23.0436 8.74419 23.8425C9.8669 24.1907 11.0602 24.3788 12.2977 24.3788C18.9244 24.3788 24.2974 18.9921 24.2974 12.347C24.2974 5.70183 18.9244 0.315186 12.2977 0.315186Z" fill="#4B4B4B"/>
</svg>
