<svg width="40" height="41" viewBox="0 0 40 41" fill="none" xmlns="http://www.w3.org/2000/svg">
<path fill-rule="evenodd" clip-rule="evenodd" d="M37.4863 35.9787C37.6149 36.4809 37.4676 37.0204 37.1008 37.3873L35.5374 38.9532C35.4302 39.0604 35.2736 39.1107 35.128 39.0919C34.9774 39.0715 34.8463 38.983 34.7706 38.8511L24.8974 21.5524L23.9323 21.389L12.8208 31.0885L14.2132 37.0434C14.334 37.5626 14.1817 38.0979 13.8055 38.4749L12.7791 39.5013C12.6676 39.6136 12.511 39.6604 12.3527 39.6281C12.1978 39.5966 12.0702 39.4902 12.0115 39.3421L9.71443 33.5958L7.0455 30.9447L1.25911 28.6273C1.12975 28.5753 1.03699 28.463 1.0089 28.3251C0.979964 28.189 1.02252 28.0485 1.12294 27.9481L2.19613 26.8741C2.4923 26.5762 2.8855 26.4153 3.2923 26.4153C3.41145 26.4153 3.5323 26.4298 3.65145 26.4579L9.58422 27.8485L19.2736 16.7226L19.1102 15.7583L1.73401 5.81789C1.62422 5.75491 1.55188 5.64768 1.53486 5.52172C1.51869 5.39917 1.56124 5.27406 1.6489 5.18555L3.26252 3.57023C3.64805 3.1847 4.21571 3.02981 4.74082 3.16513L27.0949 8.89449L33.3144 2.66811C33.9357 2.04513 34.7629 1.70215 35.6421 1.70215C36.5093 1.70215 37.3578 2.05449 37.9715 2.66896C38.5842 3.28257 38.9366 4.13279 38.9366 5.00087C38.9366 5.86896 38.5842 6.71832 37.9706 7.33279L31.7527 13.5583L37.4863 35.9787Z" stroke="white" stroke-width="2"/>
</svg>
