<svg width="66" height="61" viewBox="0 0 66 61" fill="none" xmlns="http://www.w3.org/2000/svg">
<path fill-rule="evenodd" clip-rule="evenodd" d="M64.6354 7.15544C64.6354 4.30839 62.3237 1.99677 59.4767 1.99677H7.15561C4.30856 1.99677 1.99707 4.30839 1.99707 7.15544V48.5829C1.99707 51.43 4.30856 53.7414 7.15561 53.7414H59.4767C62.3237 53.7414 64.6354 51.43 64.6354 48.5829V7.15544Z" stroke="#EBCB80" stroke-width="2" stroke-linecap="round"/>
<path fill-rule="evenodd" clip-rule="evenodd" d="M55.1033 14.1433C55.1033 12.1992 53.5249 10.621 51.581 10.621H15.051C13.107 10.621 11.5288 12.1992 11.5288 14.1433V41.5951C11.5288 43.5392 13.107 45.1174 15.051 45.1174H51.581C53.5249 45.1174 55.1033 43.5392 55.1033 41.5951V14.1433Z" stroke="#EBCB80" stroke-width="2" stroke-linecap="round"/>
<path d="M33.3857 19.2904L34.3843 19.3441L34.42 18.6801L33.8215 18.3903L33.3857 19.2904ZM29.9219 18.3624L29.9944 17.365L29.3314 17.3168L29.0303 17.9096L29.9219 18.3624ZM28.6415 20.8837L28.7256 21.8802L29.2808 21.8333L29.5332 21.3365L28.6415 20.8837ZM24.9945 22.2837L24.6349 23.2168L25.1548 23.4172L25.5988 23.0804L24.9945 22.2837ZM22.3559 21.2668L22.7155 20.3337L22.0952 20.0946L21.6347 20.5741L22.3559 21.2668ZM20.4028 24.2741L19.4767 23.8969L19.2259 24.5126L19.6967 24.9821L20.4028 24.2741ZM22.4051 26.271L23.3787 26.499L23.5058 25.9564L23.1112 25.563L22.4051 26.271ZM22.6096 30.172L23.3859 30.8024L23.7372 30.3698L23.5541 29.8435L22.6096 30.172ZM20.827 32.3674L20.0507 31.737L19.6316 32.2531L19.9454 32.8393L20.827 32.3674ZM23.0836 35.1541L22.4387 35.9183L22.9468 36.3471L23.5387 36.0445L23.0836 35.1541ZM25.6017 33.867L26.1194 33.0114L25.6427 32.723L25.1465 32.9766L25.6017 33.867ZM29.375 34.8779L30.2144 34.3344L29.9115 33.8667L29.3543 33.8781L29.375 34.8779ZM30.9119 37.2516L30.0725 37.7951L30.4338 38.3532L31.0883 38.236L30.9119 37.2516ZM34.2596 35.9666L34.7873 36.8161L35.352 36.4653L35.2471 35.8089L34.2596 35.9666ZM33.8136 33.1742L33.1598 32.4174L32.7382 32.7817L32.8261 33.3319L33.8136 33.1742ZM35.9411 29.8979L35.6836 28.9316L35.1451 29.0751L34.9839 29.6086L35.9411 29.8979ZM38.6736 29.1697L38.9311 30.1359L39.5736 29.9647L39.6643 29.3061L38.6736 29.1697ZM38.486 25.5888L39.4569 25.3495L39.2979 24.704L38.6411 24.6009L38.486 25.5888ZM35.6923 25.1501L34.7706 25.5379L34.9867 26.0515L35.5371 26.1379L35.6923 25.1501ZM33.2339 22.1143L32.2353 22.0606L32.2054 22.6171L32.6629 22.9353L33.2339 22.1143ZM31.5468 28.4898L30.5809 28.2309L30.5809 28.231L31.5468 28.4898ZM28.6102 30.1852L28.8691 29.2193L28.8689 29.2193L28.6102 30.1852ZM26.9147 27.2486L27.8806 27.5075L27.8807 27.5073L26.9147 27.2486ZM33.8215 18.3903C32.649 17.8276 31.2913 17.4637 29.9944 17.365L29.8495 19.3598C30.9585 19.4359 31.9513 19.7019 32.9499 20.1904L33.8215 18.3903ZM29.0303 17.9096L27.7499 20.4309L29.5332 21.3365L30.8136 18.8152L29.0303 17.9096ZM28.5575 19.8872C27.0944 20.0206 25.5669 20.6069 24.3902 21.4869L25.5988 23.0804C26.5392 22.3547 27.5412 21.9701 28.7256 21.8802L28.5575 19.8872ZM25.3541 21.3506L22.7155 20.3337L21.9963 22.1999L24.6349 23.2168L25.3541 21.3506ZM21.6347 20.5741C20.7371 21.5152 19.9714 22.6941 19.4767 23.8969L21.329 24.6513C21.7441 23.6201 22.304 22.7581 23.0772 21.9594L21.6347 20.5741ZM19.6967 24.9821L21.6989 26.9791L23.1112 25.563L21.109 23.566L19.6967 24.9821ZM21.4314 26.043C21.1062 27.4758 21.1919 29.1097 21.6651 30.5005L23.5541 29.8435C23.1545 28.725 23.0983 27.6532 23.3787 26.499L21.4314 26.043ZM21.8333 29.5417L20.0507 31.737L21.6033 32.9977L23.3859 30.8024L21.8333 29.5417ZM19.9454 32.8393C20.5631 33.9838 21.4477 35.0762 22.4387 35.9183L23.7285 34.3898C22.8761 33.6764 22.2293 32.8776 21.7086 31.8954L19.9454 32.8393ZM23.5387 36.0445L26.0568 34.7574L25.1465 32.9766L22.6285 34.2636L23.5387 36.0445ZM25.084 34.7226C26.346 35.4746 27.9264 35.898 29.3956 35.8777L29.3543 33.8781C28.1671 33.9126 27.1303 33.6348 26.1194 33.0114L25.084 34.7226ZM28.5355 35.4214L30.0725 37.7951L31.7513 36.7081L30.2144 34.3344L28.5355 35.4214ZM31.0883 38.236C32.3676 38.0022 33.6801 37.4985 34.7873 36.8161L33.732 35.1171C32.7902 35.7074 31.8305 36.0757 30.7355 36.2673L31.0883 38.236ZM35.2471 35.8089L34.801 33.0164L32.8261 33.3319L33.2722 36.1244L35.2471 35.8089ZM34.4673 33.9309C35.5724 32.963 36.4636 31.5908 36.8983 30.1873L34.9839 29.6086C34.6497 30.7484 34.0651 31.6486 33.1598 32.4174L34.4673 33.9309ZM36.1986 30.8642L38.9311 30.1359L38.4161 28.2034L35.6836 28.9316L36.1986 30.8642ZM39.6643 29.3061C39.8372 28.0172 39.7637 26.6133 39.4569 25.3495L37.515 25.8281C37.7853 26.9061 37.839 27.9327 37.683 29.0333L39.6643 29.3061ZM38.6411 24.6009L35.8474 24.1622L35.5371 26.1379L38.3308 26.5767L38.6411 24.6009ZM36.614 24.7622C36.035 23.4119 35.0053 22.1403 33.8048 21.2933L32.6629 22.9353C33.6436 23.6052 34.3191 24.4393 34.7706 25.5379L36.614 24.7622ZM34.2324 22.168L34.3843 19.3441L32.3872 19.2367L32.2353 22.0606L34.2324 22.168ZM29.5926 26.5191C30.3374 26.7186 30.7805 27.4861 30.5809 28.2309L32.5127 28.7487C32.9983 26.9369 31.922 25.0726 30.1101 24.5872L29.5926 26.5191ZM30.5809 28.231C30.3813 28.9758 29.6138 29.4189 28.8691 29.2193L28.3513 31.1511C30.163 31.6367 32.0274 30.5604 32.5128 28.7485L30.5809 28.231ZM28.8689 29.2193C28.1241 29.0197 27.681 28.2522 27.8806 27.5075L25.9488 26.9897C25.4632 28.8014 26.5395 30.6658 28.3514 31.1512L28.8689 29.2193ZM27.8807 27.5073C28.0802 26.7625 28.8477 26.3194 29.5925 26.519L30.1103 24.5872C28.2985 24.1016 26.4342 25.1779 25.9488 26.9898L27.8807 27.5073Z" fill="#EBCB80"/>
<path d="M46.9331 22.4223V31.9542" stroke="#EBCB80" stroke-width="2" stroke-linecap="round"/>
<path fill-rule="evenodd" clip-rule="evenodd" d="M46.9329 30.5925C48.4359 30.5925 49.6563 31.8129 49.6563 33.3159C49.6563 34.8191 48.4359 36.0393 46.9329 36.0393C45.4297 36.0393 44.2095 34.8191 44.2095 33.3159C44.2095 31.8129 45.4297 30.5925 46.9329 30.5925Z" fill="#EBCB80"/>
<path fill-rule="evenodd" clip-rule="evenodd" d="M46.9329 18.9516C48.4359 18.9516 49.6563 20.1719 49.6563 21.675C49.6563 23.1782 48.4359 24.3984 46.9329 24.3984C45.4297 24.3984 44.2095 23.1782 44.2095 21.675C44.2095 20.1719 45.4297 18.9516 46.9329 18.9516Z" fill="#EBCB80"/>
<path fill-rule="evenodd" clip-rule="evenodd" d="M11.5288 59.1883H19.699V53.7414H11.5288V59.1883Z" stroke="#EBCB80" stroke-width="2" stroke-linecap="round"/>
<path fill-rule="evenodd" clip-rule="evenodd" d="M46.9331 59.1883H55.1033V53.7414H46.9331V59.1883Z" stroke="#EBCB80" stroke-width="2" stroke-linecap="round"/>
</svg>
