<svg width="30" height="25" viewBox="0 0 30 25" fill="none" xmlns="http://www.w3.org/2000/svg">
<mask id="mask0_0_882" style="mask-type:alpha" maskUnits="userSpaceOnUse" x="0" y="0" width="30" height="24">
<path fill-rule="evenodd" clip-rule="evenodd" d="M0 23.9745H29.4167V0.00537109H0V23.9745V23.9745Z" fill="white"/>
</mask>
<g mask="url(#mask0_0_882)">
<path fill-rule="evenodd" clip-rule="evenodd" d="M29.4231 2.84356C28.3406 3.32496 27.1771 3.65031 25.9561 3.79664C27.2024 3.04751 28.1595 1.86135 28.6103 0.448026C27.4439 1.14157 26.152 1.64531 24.777 1.91681C23.6758 0.740467 22.107 0.00537109 20.3708 0.00537109C17.037 0.00537109 14.3341 2.71536 14.3341 6.05793C14.3341 6.53231 14.3876 6.99428 14.4905 7.43726C9.47354 7.18485 5.02558 4.77518 2.04829 1.1133C1.52868 2.00724 1.231 3.04697 1.231 4.1562C1.231 6.25606 2.29679 8.10869 3.91652 9.19407C2.92692 9.16266 1.9962 8.8904 1.18224 8.43706C1.18181 8.46232 1.18181 8.48767 1.18181 8.51314C1.18181 11.4458 3.2626 13.8921 6.02411 14.4481C5.51752 14.5864 4.98425 14.6603 4.43365 14.6603C4.0447 14.6603 3.66651 14.6225 3.29801 14.5518C4.06612 16.9565 6.29543 18.7064 8.93693 18.7553C6.871 20.3786 4.26813 21.3462 1.44 21.3462C0.952789 21.3462 0.472251 21.3176 0 21.2617C2.67143 22.979 5.84448 23.981 9.25345 23.981C20.3567 23.981 26.4284 14.7581 26.4284 6.75979C26.4284 6.49735 26.4226 6.23631 26.411 5.97678C27.5903 5.12341 28.6138 4.05735 29.4231 2.84356" fill="#4B4B4B"/>
</g>
</svg>
