<svg width="42" height="43" viewBox="0 0 42 43" fill="none" xmlns="http://www.w3.org/2000/svg">
<path fill-rule="evenodd" clip-rule="evenodd" d="M37.7062 41.4318H5.08743C3.28403 41.4318 1.82275 39.9696 1.82275 38.1662V14.059C1.82275 12.2556 3.28403 10.7935 5.08743 10.7935H37.7062C39.5096 10.7935 40.9717 12.2556 40.9717 14.059V38.1662C40.9717 39.9696 39.5096 41.4318 37.7062 41.4318V41.4318Z" stroke="white" stroke-width="2"/>
<path fill-rule="evenodd" clip-rule="evenodd" d="M32.4609 31.2189H40.9715V21.0061H32.4609C30.5809 21.0061 29.0566 22.5304 29.0566 24.4104V27.8146C29.0566 29.6946 30.5809 31.2189 32.4609 31.2189V31.2189Z" stroke="white" stroke-width="2"/>
<path fill-rule="evenodd" clip-rule="evenodd" d="M35.8652 26.1125C35.8652 27.053 35.1035 27.8147 34.1631 27.8147C33.2226 27.8147 32.4609 27.053 32.4609 26.1125C32.4609 25.1721 33.2226 24.4104 34.1631 24.4104C35.1035 24.4104 35.8652 25.1721 35.8652 26.1125Z" fill="white"/>
<path d="M18.8438 10.7934L30.7586 2.28271L35.865 10.7934" stroke="white" stroke-width="2"/>
<path d="M10.333 10.7934L18.8436 2.28271L23.95 7.3891" stroke="white" stroke-width="2"/>
</svg>
