<svg width="31" height="32" viewBox="0 0 31 32" fill="none" xmlns="http://www.w3.org/2000/svg">
<path d="M15.2936 10.637C12.496 10.6278 10.2058 13.0005 10.197 15.9171C10.1882 18.8338 12.4641 21.2215 15.2617 21.2307C18.0593 21.2399 20.3495 18.8672 20.3583 15.9505C20.3671 13.0339 18.0912 10.6462 15.2936 10.637ZM30.5158 15.9839C30.5223 13.7904 30.5479 11.6169 30.4364 9.42706C30.3259 6.88355 29.7762 4.6247 27.998 2.75918C26.216 0.88967 24.0567 0.306395 21.6177 0.1752C19.5142 0.0451062 17.4293 0.0581261 15.3292 0.0512276C13.2253 0.0443166 11.1405 0.0176 9.04001 0.133884C6.60032 0.249054 4.43368 0.822093 2.64434 2.67589C0.851178 4.53366 0.29175 6.78489 0.165954 9.32763C0.0412085 11.5207 0.0537345 13.6943 0.0471555 15.8838C0.0405765 18.0733 0.0149761 20.2508 0.126552 22.4406C0.237064 24.9841 0.786752 27.243 2.56491 29.1085C4.34688 30.978 6.50623 31.5613 8.94518 31.6925C11.0487 31.8226 13.1336 31.8095 15.2337 31.8164C17.3376 31.8234 19.4224 31.8501 21.5229 31.7338C23.9626 31.6186 26.1292 31.0456 27.9186 29.1918C29.7117 27.334 30.2712 25.0828 30.397 22.54C30.5255 20.351 30.5092 18.1773 30.5158 15.9839ZM15.2532 24.0837C10.9272 24.0695 7.44684 20.4182 7.46039 15.9081C7.47395 11.3981 10.9762 7.76969 15.3021 7.7839C19.6281 7.79811 23.1084 11.4494 23.0949 15.9595C23.0813 20.4696 19.5791 24.098 15.2532 24.0837ZM23.4348 9.38022C22.4248 9.3769 21.6117 8.52386 21.6149 7.47085C21.618 6.41784 22.4362 5.57016 23.4463 5.57348C24.4563 5.5768 25.2694 6.42983 25.2662 7.48285C25.2658 7.73289 25.218 7.98038 25.1257 8.21115C25.0333 8.44192 24.8982 8.65143 24.7281 8.82768C24.558 9.00393 24.3562 9.14345 24.1343 9.23827C23.9124 9.33308 23.6747 9.38132 23.4348 9.38022Z" fill="#FFFEEE"/>
</svg>
