<svg width="24" height="24" viewBox="0 0 24 24" fill="none" xmlns="http://www.w3.org/2000/svg">
<path d="M12.1996 8.01085C10.0405 8.00393 8.27296 9.79085 8.2662 11.9874C8.25943 14.184 10.0159 15.9822 12.175 15.9891C14.3341 15.996 16.1017 14.2091 16.1084 12.0126C16.1152 9.81599 14.3587 8.01778 12.1996 8.01085ZM23.9477 12.0377C23.9528 10.3858 23.9726 8.74887 23.8864 7.09965C23.8012 5.1841 23.3769 3.48292 22.0046 2.07797C20.6293 0.670023 18.9628 0.230751 17.0804 0.131945C15.457 0.0339701 13.8479 0.0437756 12.2271 0.0385802C10.6033 0.0333755 8.99435 0.0132548 7.37325 0.10083C5.49036 0.187566 3.8182 0.61913 2.43723 2.01525C1.05331 3.41436 0.621562 5.1098 0.524475 7.02477C0.4282 8.67639 0.437867 10.3134 0.432789 11.9623C0.427712 13.6112 0.407954 15.2511 0.494065 16.9003C0.579357 18.8159 1.00359 20.5171 2.37594 21.922C3.75121 23.33 5.41775 23.7692 7.30007 23.8681C8.92353 23.966 10.5326 23.9562 12.1534 23.9614C13.7772 23.9666 15.3862 23.9867 17.0073 23.8992C18.8901 23.8124 20.5623 23.3809 21.9433 21.9847C23.3272 20.5856 23.7589 18.8902 23.856 16.9752C23.9552 15.3266 23.9426 13.6896 23.9477 12.0377ZM12.1684 18.1378C8.82973 18.1271 6.14369 15.3773 6.15415 11.9807C6.16461 8.58405 8.86753 5.85147 12.2062 5.86217C15.5449 5.87287 18.2309 8.62273 18.2205 12.0193C18.21 15.4159 15.5071 18.1485 12.1684 18.1378ZM18.4828 7.06438C17.7033 7.06188 17.0758 6.41944 17.0782 5.6264C17.0807 4.83337 17.7121 4.19497 18.4917 4.19747C19.2712 4.19996 19.8987 4.8424 19.8963 5.63544C19.8959 5.82375 19.859 6.01014 19.7878 6.18393C19.7165 6.35773 19.6123 6.51551 19.481 6.64825C19.3497 6.78099 19.1939 6.88607 19.0226 6.95747C18.8514 7.02888 18.6679 7.06521 18.4828 7.06438Z" fill="#FFFEEE"/>
</svg>
